<?xml version="1.0" encoding="utf-8"?>
<svg version="1.1" xmlns="http://www.w3.org/2000/svg" xmlns:xlink="http://www.w3.org/1999/xlink" x="0px" y="0px"
	 viewBox="0 0 80 80" enable-background="new 0 0 80 80" xml:space="preserve">
<path fill="#FFFFFF" d="M64,0H16C7.2,0,0,7.2,0,16v48c0,8.8,7.2,16,16,16h48c8.8,0,16-7.2,16-16V16C80,7.2,72.8,0,64,0z
	 M41.185,61.453c-0.01,1.971-0.481,3.691-1.411,5.162c-0.931,1.471-2.216,2.612-3.856,3.425c-1.639,0.812-3.533,1.218-5.682,1.218
	c-1.901,0-3.627-0.332-5.177-0.995c-1.55-0.663-2.784-1.694-3.7-3.091S19.991,63.988,20,61.81h7.324
	c0.03,0.782,0.18,1.448,0.453,1.998s0.651,0.964,1.137,1.24c0.485,0.278,1.065,0.416,1.739,0.416c0.703,0,1.297-0.15,1.782-0.452
	c0.485-0.303,0.854-0.751,1.107-1.346c0.252-0.594,0.385-1.331,0.394-2.213V40.416h7.249V61.453z M68.545,66.965
	c-0.961,1.377-2.34,2.431-4.137,3.164c-1.798,0.733-3.965,1.101-6.501,1.101c-2.545,0-4.763-0.382-6.655-1.144
	c-1.893-0.763-3.363-1.923-4.412-3.477c-1.05-1.555-1.59-3.521-1.62-5.898h7.042c0.06,0.981,0.322,1.798,0.788,2.451
	c0.465,0.654,1.107,1.149,1.924,1.485c0.817,0.336,1.765,0.505,2.844,0.505c0.99,0,1.835-0.132,2.533-0.4
	c0.698-0.268,1.235-0.638,1.613-1.114c0.376-0.476,0.57-1.02,0.579-1.634c-0.01-0.574-0.189-1.067-0.535-1.478
	c-0.347-0.411-0.88-0.768-1.597-1.069c-0.719-0.303-1.632-0.583-2.741-0.841l-3.18-0.743c-2.635-0.603-4.709-1.581-6.226-2.934
	c-1.515-1.351-2.267-3.181-2.258-5.489c-0.01-1.882,0.495-3.53,1.515-4.947c1.02-1.417,2.432-2.521,4.235-3.313
	C53.559,40.397,55.614,40,57.922,40c2.356,0,4.405,0.399,6.143,1.196c1.739,0.797,3.088,1.914,4.048,3.35
	c0.961,1.436,1.452,3.1,1.471,4.991h-7.042c-0.1-1.089-0.537-1.938-1.315-2.547c-0.777-0.609-1.885-0.913-3.321-0.913
	c-0.951,0-1.742,0.124-2.377,0.371c-0.633,0.248-1.109,0.587-1.426,1.018c-0.317,0.43-0.481,0.923-0.49,1.478
	c-0.019,0.455,0.072,0.857,0.275,1.204c0.203,0.346,0.5,0.651,0.892,0.913c0.391,0.262,0.864,0.493,1.419,0.69
	c0.554,0.199,1.178,0.372,1.871,0.522l2.615,0.594c1.506,0.327,2.836,0.763,3.989,1.307c1.154,0.546,2.124,1.194,2.912,1.947
	c0.788,0.752,1.384,1.62,1.79,2.6c0.406,0.981,0.614,2.079,0.624,3.297C69.99,63.939,69.505,65.589,68.545,66.965z"/>
</svg>