<?xml version="1.0" encoding="utf-8"?>
<svg class="logo" xmlns="http://www.w3.org/2000/svg" height="32" viewBox="0 0 32 32" fill="#FFFFFF"><path d="M16.098 32v-6.196c6.615 0 11.7-6.501 9.177-13.419a9.227 9.227 0 0 0-5.545-5.513C12.771 4.363 6.233 9.457 6.233 15.996H0C0 5.542 10.171-2.631 21.183.79c4.818 1.483 8.642 5.322 10.172 10.112C34.796 21.888 26.613 32 16.098 32Z"></path><path d="M16.097 25.842H9.902v-6.159h6.195v6.159Zm-6.194 4.751h-4.78v-4.751h4.78v4.751Zm-4.779-4.751H1.109v-3.954h3.977v3.954h.038Z"></path></svg>