<?xml version="1.0" encoding="utf-8"?>
<svg version="1.1" xmlns="http://www.w3.org/2000/svg" xmlns:xlink="http://www.w3.org/1999/xlink" x="0px" y="0px"
	 viewBox="0 0 187 37" style="enable-background:new 0 0 187 37;" xml:space="preserve">
<style type="text/css">
	.st0{fill:#FFFFFF;}
</style>
<path class="st0" d="M42,23l-2.2-0.2c-1.7-0.1-2.3-0.8-2.3-2c0-1.4,1-2.2,3-2.2c1.3-0.1,2.6,0.3,3.6,1.1l1.3-1.3
	c-1.4-1-3.1-1.5-4.8-1.4c-2.9,0-4.9,1.5-4.9,3.9c0,2.2,1.4,3.4,4,3.6l2.2,0.2c1.6,0.1,2.2,0.8,2.2,2c0,1.6-1.4,2.4-3.6,2.4
	c-1.6,0.1-3.1-0.5-4.2-1.6L35,28.8c1.5,1.4,3.5,2,5.5,1.9c3.2,0,5.5-1.5,5.5-4.1S44.4,23.2,42,23z M57.8,16.9
	c-2.2,0-3.5,0.4-4.7,1.9l1.3,1.3c0.8-1.1,2.1-1.7,3.4-1.5c2.5,0,3.4,1,3.4,2.9v1.3h-4c-3,0-4.6,1.5-4.6,3.9c0,1,0.3,2,1,2.7
	c0.8,0.9,1.9,1.2,3.8,1.2c1.4,0.1,2.9-0.4,3.9-1.4v1.3h2v-9.1C63.2,18.5,61.4,16.9,57.8,16.9z M61.2,25.8c0.1,0.8-0.1,1.7-0.7,2.3
	c-0.836,0.695-1.919,1.02-3,0.9c-2.1,0-3.1-0.7-3.1-2.3c0-1.6,1-2.4,3-2.4h3.8V25.8z M70.9,18.7c1.2,0,2.4,0.5,3.1,1.5l1.3-1.3
	c-1.07-1.322-2.7-2.064-4.4-2c-3.4,0-5.9,2.3-5.9,6.9s2.6,6.9,5.9,6.9c1.7,0.1,3.3-0.7,4.4-2L74,27.4c-0.7,1-1.9,1.5-3.1,1.5
	c-1.2,0.1-2.4-0.5-3.1-1.5c-0.7-1.1-1-2.3-0.9-3.6c-0.1-1.3,0.2-2.5,0.9-3.6C68.5,19.2,69.7,18.6,70.9,18.7z M87.7,17.1h-2.4
	L79.2,23V11.1h-2v19.4h2v-4.9l2.4-2.4l4.5,7.3h2.4l-5.6-8.6C82.9,21.9,87.7,17.1,87.7,17.1z M96.9,16.94c-1.6-0.1-3.2,0.5-4.3,1.7
	c-1.3,1.3-1.6,2.9-1.6,5.4s0.3,4.1,1.6,5.4c1.1,1.1,2.7,1.7,4.3,1.7c1.6,0.1,3.2-0.5,4.3-1.7c1.3-1.3,1.6-2.9,1.6-5.4
	s-0.3-4.1-1.6-5.4C100.096,17.455,98.516,16.83,96.9,16.94z M98.6,27.44c-0.9,0.8-2.3,0.8-3.2,0c-0.7-0.7-0.8-2-0.8-3.4
	s0.1-2.7,0.8-3.4c0.9-0.8,2.3-0.8,3.2,0c0.7,0.7,0.8,1.9,0.8,3.4S99.3,26.74,98.6,27.44z M112.2,17.04l-2.8,8.6l-2.8-8.6h-3.7
	l5.2,14h2.7l5.1-14C115.9,17.04,112.2,17.04,112.2,17.04z M121.8,16.94c-3.6,0-6.1,2.6-6.1,7.1c0,5.7,3.2,7.2,6.5,7.2
	c2,0.1,4-0.7,5.3-2.2l-2.1-2.1c-0.8,0.9-2,1.4-3.2,1.3c-1.6,0.1-3-1.1-3.1-2.7v-0.4h8.7v-1.6C127.9,19.74,125.7,16.94,121.8,16.94z
	 M119.1,22.74c0-0.5,0.1-1,0.3-1.5c0.4-0.9,1.3-1.4,2.3-1.4c1-0.1,1.9,0.5,2.3,1.4c0.2,0.5,0.3,1,0.3,1.5H119.1L119.1,22.74z
	 M132.43,18.44v-1.3h-3.4v14h3.5v-8.4c-0.1-1.3,0.8-2.4,2.1-2.6h0.2c0.7,0,1.4,0.3,1.8,0.8l2.6-2.6c-0.846-0.911-2.06-1.389-3.3-1.3
	C134.63,16.94,133.33,17.44,132.43,18.44L132.43,18.44z M140.03,15.64v15.4h3.5v-11h2.6v-2.7h-2.6v-1.5c-0.1-0.6,0.3-1.2,0.9-1.3
	h1.6v-3h-2c-2.153-0.056-3.944,1.644-4,3.797c0,0.001,0,0.002,0,0.003C140.03,15.34,140.03,15.64,140.03,15.64z M160.3,16.94
	c-1.6-0.1-3.2,0.5-4.3,1.7c-1.3,1.3-1.6,2.9-1.6,5.4s0.3,4.1,1.6,5.4c1.1,1.1,2.7,1.7,4.3,1.7c1.6,0.1,3.2-0.5,4.3-1.7
	c1.3-1.3,1.6-2.9,1.6-5.4s-0.3-4.1-1.6-5.4C163.496,17.455,161.916,16.83,160.3,16.94z M162,27.44c-0.9,0.8-2.3,0.8-3.2,0
	c-0.7-0.7-0.8-2-0.8-3.4s0.1-2.7,0.8-3.4c0.9-0.8,2.3-0.8,3.2,0c0.7,0.7,0.8,1.9,0.8,3.4S162.7,26.74,162,27.44z M182.7,17.04
	l-2.3,8.6l-2.9-8.6H175l-2.8,8.7l-2.3-8.6h-3.7l4.3,14h2.9l2.9-8.8l2.9,8.8h3l4.3-14L182.7,17.04L182.7,17.04z M151.48,26.84v-15.2
	h-3.5v15.4c-0.113,2.096,1.494,3.886,3.589,3.999c0.003,0,0.007,0,0.011,0.001h2.5v-3h-1.3c-0.6,0.1-1.1-0.2-1.3-0.8
	C151.48,27.24,151.48,26.84,151.48,26.84z M52.7,17.4H49V13h-2v13.9c0,2,1.1,3.6,3.4,3.6h1.4v-1.7h-1c-1.3,0-1.8-0.7-1.8-2v-7.7h1.9
	C50.9,19.1,52.7,17.4,52.7,17.4z"/>
<path class="st0" d="M26,33v-9h4v13H0V24h4v9H26z"/>
<path class="st0" d="M23.1,25.99l0.68-2.95l-16.1-3.35L7,23L23.1,25.99z M9.1,15.2l15,7l1.4-3l-15-7C10.5,12.2,9.1,15.2,9.1,15.2z
	 M13.3,7.8L26,18.4l2.1-2.5L15.4,5.3C15.4,5.3,13.3,7.8,13.3,7.8z M21.5,0l-2.7,2l9.9,13.3l2.7-2L21.5,0z M7,30h16v-3H7V30z"/>
</svg>