<?xml version="1.0" encoding="utf-8"?>
<svg version="1.1" xmlns="http://www.w3.org/2000/svg" xmlns:xlink="http://www.w3.org/1999/xlink" x="0px" y="0px"
	 viewBox="0 0 1024 1024" enable-background="new 0 0 1024 1024" xml:space="preserve">
<g>
	<path fill="#FFFFFF" d="M494.182,23.286c-29.225,18.749-37.652,57.59-18.821,86.712
		c103.516,160.307,127.949,281.221,117.35,387.185c-42.844,202.916-135.977,244.081-217.365,244.081
		c-79.462,0-58.184-130.775,1.546-169.052c35.656-22.262,81.326-36.731,116.378-36.731c34.734,0,62.894-28.068,62.894-62.7
		c0-34.642-28.16-62.71-62.894-62.71c-40.94,0-81.101,8.602-118.589,23.245c7.66-36.137,10.486-75.192,0.584-116.705
		c-15.032-63.037-58.307-123.249-133.448-181.617c-13.158-10.24-29.85-14.838-46.408-12.79
		c-16.558,2.048-31.621,10.568-41.871,23.695c-21.32,27.341-16.384,66.744,11.039,88.013c61.215,47.544,81.428,82.739,88.34,111.708
		c6.912,28.969,1.352,60.047-12.534,102.748c-17.746,57.549-38.349,108.923-47.38,158.188c-4.444,24.248-4.823,50.637-5.97,71.721
		c-44.083-42.967-61.338-99.697-61.338-182.589c-0.01-34.632-28.17-62.71-62.894-62.7c-34.703,0.031-62.822,28.088-62.833,62.7
		c0,113.213,33.106,220.938,121.836,292.803c80.323,76.523,284.58,48.241,284.58,171.09c0,34.673,50.749,51.548,85.473,51.548
		c35.615,0,80.435-23.808,80.435-51.548c0-139.387,146.893-224.102,388.71-223.734c34.734,0.051,62.915-27.996,62.966-62.628
		c0.061-34.642-28.037-62.771-62.771-62.833c-16.538-0.021-32.655,0.543-48.548,1.485c27.034-63.58,39.025-133.581,36.547-209.193
		c-1.147-34.621-30.208-61.757-64.911-60.631c-34.744,1.126-61.962,30.136-60.826,64.778c3.277,99-0.43,187.402-74.189,234.005
		c-20.971,13.24-45.353,24.73-68.475,24.73c17.951-48.824,31.508-100.362,37.059-155.914c3.543-35.451,3.922-77.568-0.123-110.285
		c-6.277-50.688-13.855-108.175,5.386-151.48c17.285-37.294,56.013-52.91,112.876-52.91c34.703-0.031,62.822-28.099,62.833-62.7
		c0.02-34.642-28.109-62.74-62.833-62.771c-84.5,0-148.552,44.472-184.863,98.202c-18.985-40.55-42.107-82.34-70.042-125.594
		c-9.021-13.978-23.235-23.798-39.526-27.331c-8.069-1.751-16.404-1.905-24.535-0.451C508.897,15.79,501.135,18.831,494.182,23.286z
		"/>
</g>
</svg>